<svg width="29" height="27" viewBox="0 0 29 27" fill="none" xmlns="http://www.w3.org/2000/svg">
<path d="M27.7962 22.8053C27.8175 23.2319 27.8708 23.6479 27.9562 24.0533C28.0628 24.4586 28.1908 24.7573 28.3402 24.9493C28.1482 25.1413 27.8495 25.3653 27.4442 25.6213C27.0602 25.8773 26.6122 26.0799 26.1002 26.2293C25.6095 26.3999 25.0868 26.4746 24.5322 26.4533C23.7002 26.4106 23.0282 26.0586 22.5162 25.3973C22.0255 24.7359 21.7695 23.9146 21.7482 22.9333C21.7482 22.7413 21.7482 22.3893 21.7482 21.8773C21.7482 21.3439 21.7482 20.7786 21.7482 20.1813C21.7482 19.5839 21.7482 19.0933 21.7482 18.7093C21.7482 18.3466 21.6522 17.9946 21.4602 17.6533C21.2895 17.3119 21.0868 17.1093 20.8522 17.0453C20.5322 16.9386 20.2655 17.1306 20.0522 17.6213C20.0095 17.7279 19.8708 17.9946 19.6362 18.4213C19.4015 18.8266 19.1348 19.3066 18.8362 19.8613C18.5588 20.4159 18.2922 20.9706 18.0362 21.5253C17.8015 22.0799 17.6415 22.5599 17.5562 22.9653C17.4708 23.3493 17.5242 23.5839 17.7162 23.6693C17.6308 23.8826 17.4708 24.1919 17.2362 24.5973C17.0228 25.0026 16.6602 25.3546 16.1482 25.6533C15.6575 25.9306 14.9535 26.0373 14.0362 25.9733C13.5455 25.9306 12.9162 25.6319 12.1482 25.0773C11.3802 24.5226 10.6442 23.5093 9.94016 22.0373C9.27883 20.6293 8.73483 19.6799 8.30816 19.1893C7.90283 18.6773 7.60416 18.4426 7.41216 18.4853C7.2415 18.5066 7.10283 18.6239 6.99616 18.8373C6.91083 19.0506 6.8255 19.3493 6.74016 19.7333C6.6975 19.9253 6.67616 20.2453 6.67616 20.6933C6.67616 21.1413 6.6975 21.6426 6.74016 22.1973C6.78283 22.7519 6.8575 23.2746 6.96416 23.7653C7.09216 24.2559 7.25216 24.6293 7.44416 24.8853C7.2735 24.9919 6.96416 25.1733 6.51616 25.4293C6.0895 25.6853 5.59883 25.9199 5.04416 26.1333C4.51083 26.3253 3.98816 26.4213 3.47616 26.4213C2.70816 26.3999 2.06816 26.1973 1.55616 25.8133C1.04416 25.4079 0.734829 24.6186 0.628162 23.4453C0.606829 23.2533 0.596162 22.7093 0.596162 21.8133C0.596162 20.9173 0.596162 19.7866 0.596162 18.4213C0.596162 17.0559 0.596162 15.5946 0.596162 14.0373C0.596162 12.4586 0.596162 10.9013 0.596162 9.36528C0.596162 7.82928 0.596162 6.42128 0.596162 5.14128C0.617495 3.86128 0.628162 2.83728 0.628162 2.06928C0.628162 1.30128 0.628162 0.917282 0.628162 0.917282C0.862829 0.874616 1.2575 0.863949 1.81216 0.885283C2.36683 0.906616 2.97483 0.991948 3.63616 1.14128C4.2975 1.29062 4.9055 1.53595 5.46016 1.87728C6.01483 2.19728 6.39883 2.65595 6.61216 3.25328C6.61216 3.25328 6.70816 3.45595 6.90016 3.86128C7.1135 4.24528 7.39083 4.75728 7.73216 5.39728C8.0735 6.01595 8.43616 6.68795 8.82016 7.41328C9.2255 8.13862 9.6095 8.85328 9.97216 9.55728C10.3562 10.2613 10.6868 10.8799 10.9642 11.4133C11.2628 11.9466 11.4655 12.3199 11.5722 12.5333C11.9348 13.1519 12.2762 13.5786 12.5962 13.8133C12.9375 14.0479 13.3002 14.1759 13.6842 14.1973C14.4735 14.1973 15.2308 13.5893 15.9562 12.3733C16.0628 12.1813 16.2762 11.7759 16.5962 11.1573C16.9162 10.5173 17.2895 9.75995 17.7162 8.88528C18.1428 8.01062 18.5802 7.11462 19.0282 6.19728C19.4975 5.27995 19.9242 4.42661 20.3082 3.63728C20.6922 2.82662 21.0015 2.17595 21.2362 1.68528C21.4922 1.17328 21.6202 0.917282 21.6202 0.917282C21.7695 0.895949 21.9828 0.885283 22.2602 0.885283C22.5588 0.863949 22.8788 0.874616 23.2202 0.917282C23.8175 0.959948 24.4468 1.07728 25.1082 1.26928C25.7908 1.46128 26.3775 1.75995 26.8682 2.16528C27.3802 2.57062 27.6682 3.11462 27.7322 3.79728C27.7748 4.15995 27.8068 4.75728 27.8282 5.58928C27.8495 6.39995 27.8602 7.37062 27.8602 8.50128C27.8602 9.61062 27.8602 10.7946 27.8602 12.0533C27.8602 13.3119 27.8495 14.5493 27.8282 15.7653C27.8282 16.9813 27.8175 18.1013 27.7962 19.1253C27.7962 20.1493 27.7962 20.9919 27.7962 21.6533C27.7962 22.2933 27.7962 22.6773 27.7962 22.8053Z" fill="#D67D6D"/>
</svg>
